<svg width="79" height="83" viewBox="0 0 79 83" fill="none" xmlns="http://www.w3.org/2000/svg">
<path d="M43.7901 56.2599C49.6201 61.2299 53.6901 57.1199 57.3901 63.6599C61.2901 70.5499 56.5601 71.4399 56.9701 79.2499C57.0101 79.9199 57.4801 79.9799 58.2801 79.5299C65.1501 75.7299 70.6401 72.8899 72.8601 71.0599C73.7701 70.2999 74.6801 69.3599 74.0201 68.9599C60.2101 60.5499 60.4301 60.0199 45.5301 53.4599C43.7601 52.6799 42.5601 55.2099 43.7901 56.2599Z" fill="#E27C0D"/>
<path d="M31.83 1.28673e-05H31.94C39.47 -0.00998713 45.72 5.81002 45.84 12.92C45.91 16.7 46.1 17.58 46.1 22.83C46.1 26.53 45.99 26.53 45.99 30.22C45.99 33.51 42.53 36 45.93 36.73C59.38 39.65 62.08 32.19 72.77 35.62C74.88 36.3 76.14 38.36 75.72 40.42C73.22 52.46 58.11 60.57 44.62 60.57C35.33 60.57 27.07 57.59 22.28 50.8C19.46 46.8 17.98 41.95 17.98 36.78C17.98 33.49 17.88 33.49 17.88 30.2C17.88 26.5 18.04 26.5 18.04 22.81C18.04 17.7 17.97 16.73 17.95 13.19C17.88 5.96002 24.14 0.0100129 31.83 1.28673e-05Z" fill="#E8E8E8"/>
<path d="M50.64 25.93C45.37 24.67 43.37 29.45 44.04 34.88C45.86 49.66 52.83 47.74 70.19 42.07C71.36 41.69 77.53 39.38 77.99 38.23C82.1 27.96 62.81 28.85 50.64 25.93Z" fill="#BABAB9"/>
<path d="M23.59 12.66C23.59 14.56 22.78 16.11 21.76 16.11C20.74 16.11 19.9 14.56 19.9 12.66C19.9 10.76 20.73 9.20996 21.76 9.20996C22.78 9.21996 23.59 10.76 23.59 12.66Z" fill="#2E3539"/>
<path d="M23.59 12.66C23.59 14.56 22.78 16.11 21.76 16.11C20.74 16.11 19.9 14.56 19.9 12.66C19.9 10.76 20.73 9.20996 21.76 9.20996C22.78 9.21996 23.59 10.76 23.59 12.66Z" fill="#2E3539"/>
<path d="M38.7801 12.66C38.7801 14.56 38.0001 16.1 37.0401 16.1C36.0801 16.1 35.3 14.56 35.3 12.66C35.3 10.76 36.0801 9.21997 37.0401 9.21997C38.0001 9.21997 38.7801 10.76 38.7801 12.66Z" fill="#2E3539"/>
<path d="M38.7801 12.66C38.7801 14.56 38.0001 16.1 37.0401 16.1C36.0801 16.1 35.3 14.56 35.3 12.66C35.3 10.76 36.0801 9.21997 37.0401 9.21997C38.0001 9.21997 38.7801 10.76 38.7801 12.66Z" fill="#2E3539"/>
<path d="M40.86 55.8501C39.23 62.9001 45.61 64.6001 40.87 70.2601C36.21 75.8301 33.43 71.3701 26.25 73.4601C25.66 73.6301 25.02 74.3701 25.42 74.8301C27.73 77.4701 28.79 78.6201 30.22 79.5301C30.99 80.0301 36.92 82.5201 37.22 82.2001C42.79 76.5301 40.72 79.0501 44.31 72.5001C48.35 65.1201 45.65 64.0601 44.28 55.8501C43.97 54.0501 41.21 54.3101 40.86 55.8501Z" fill="#E27C0D"/>
<path d="M49.27 33.16C49.16 33.08 49.09 32.97 49.06 32.83C48.99 32.52 49.19 32.21 49.5 32.14C50.01 32.02 62.21 29.14 71.54 32.93C71.83 33.05 71.96 33.38 71.84 33.68C71.72 33.97 71.38 34.12 71.09 34C62.1 30.34 49.86 33.23 49.74 33.26C49.57 33.29 49.4 33.25 49.27 33.16Z" fill="#2E3539"/>
<path d="M52.22 36.9801C51.99 36.8101 51.86 36.7001 51.85 36.6801C51.62 36.4701 51.6 36.1101 51.81 35.8701C52.02 35.6301 52.3799 35.6001 52.6199 35.8101C52.6499 35.8301 55.3399 38.1701 57.4499 36.5901C59.1299 35.3301 60.48 36.4701 61.38 37.2201C61.76 37.5401 62.23 37.9301 62.47 37.9001C62.59 37.8801 62.7299 37.7201 62.7999 37.6201C63.8899 36.1301 65.5299 36.8401 66.6199 37.3001C66.9499 37.4401 67.44 37.6501 67.64 37.6501C67.65 37.6401 67.6499 37.6201 67.6599 37.5901C67.7299 37.2801 68.0399 37.0801 68.3399 37.1401C68.6499 37.2001 68.8399 37.5101 68.7699 37.8201C68.6499 38.3201 68.3799 38.5601 68.17 38.6701C67.59 38.9701 66.92 38.6901 66.15 38.3601C64.53 37.6601 64.09 37.7701 63.72 38.2901C63.4 38.7301 63.02 38.9801 62.6 39.0401C61.87 39.1401 61.25 38.6201 60.65 38.1201C59.68 37.3101 59.03 36.8401 58.13 37.5201C56.9299 38.4201 55.45 38.5501 53.86 37.9001C53.14 37.6001 52.57 37.2301 52.22 36.9801Z" fill="#2E3539"/>
<path d="M19.3501 8.19008L20.2601 6.08008L11.9501 10.1401L15.3201 9.57007L19.3501 8.19008Z" fill="#1E1E1C"/>
<path d="M47.72 9.61015C48.8 8.94015 48.17 7.61015 47.47 8.11015L41.08 11.8901C34.27 7.23015 28.28 10.9402 28.28 10.9402C27.43 9.73015 24.96 10.6501 24.96 10.6501C19.23 6.28014 13.88 9.69015 13.88 9.69015L11.95 10.1301L11.91 11.4101L13.62 12.0401C14.66 19.0901 19.35 19.0301 22.37 18.4201C25.93 17.7001 25.52 12.9402 25.52 12.9402C26.74 10.8402 28.4 12.8101 28.4 12.8101C29.13 20.4301 34 20.6801 37.27 20.1501C41.63 19.4301 40.29 13.2101 40.29 13.2101L41.14 13.5301L47.72 9.61015ZM22.56 17.3701C20.93 18.0401 16.97 18.1401 15.5 15.4901C14.76 14.1501 14.55 12.5001 14.42 11.6101C14.29 10.7601 14.94 10.1101 15.77 9.86015C17.51 9.33015 20.58 8.69014 23.62 11.0101C23.89 11.2101 24.08 11.4901 24.18 11.8101C24.64 13.1601 24.8 16.4501 22.56 17.3701ZM36.98 19.0601C34.02 19.2401 31.66 19.0902 30.2 16.4402C29.21 14.6502 29.08 12.9101 29.13 12.1501C29.15 11.8001 29.37 11.4901 29.7 11.3501C31.12 10.7401 35.35 9.35014 39.09 12.5101C39.09 12.5101 40.45 18.8501 36.98 19.0601Z" fill="#203458"/>
<path d="M23.49 21.2501C11.74 21.2501 11.74 21.2301 0 21.2301H0.0200005C0.0200005 18.3801 5.64 16.7001 8.65 16.5701C17.78 16.1801 14.15 16.0901 22.81 16.0901C24.69 16.0901 25.79 17.6401 25.84 19.1601" fill="#E27C0D"/>
<path d="M5.06 28.0801C5.4 28.3701 5.81 28.5901 6.27 28.6701C8.44 29.0301 11.89 27.5801 14.16 26.3201C20.31 22.9101 17.67 24.5501 23.82 21.1501C26.42 19.7001 26.43 18.5201 24.41 17.8701C23.65 17.6201 23.73 18.2601 23.04 18.6501C14.24 23.5301 12.92 22.4001 4.12001 27.2901C4.11001 27.2701 4.67 27.7501 5.06 28.0801Z" fill="#E27C0D"/>
</svg>
