<svg width="230" height="50" viewBox="0 0 230 50" fill="none" xmlns="http://www.w3.org/2000/svg">
<path d="M61.5772 2.88231V1.62129C61.5772 1.26101 61.6971 0.960765 61.937 0.720573C62.1768 0.480381 62.4766 0.360291 62.8363 0.360291H79.6246C79.9844 0.360291 80.2842 0.480381 80.524 0.720573C80.7639 0.960765 80.8838 1.26101 80.8838 1.62129V2.88231C80.8838 3.24259 80.7639 3.54283 80.524 3.78303C80.2842 4.02322 79.9844 4.14331 79.6246 4.14331H73.6888V18.1946C73.6888 18.5548 73.5689 18.8551 73.329 19.0352C73.0892 19.2754 72.7894 19.3955 72.4297 19.3955H69.9114C69.5517 19.3955 69.2519 19.2754 69.012 19.0352C68.7722 18.795 68.6523 18.4948 68.6523 18.1946V4.14331H62.8363C62.4766 4.14331 62.1768 4.02322 61.937 3.78303C61.6971 3.54283 61.5772 3.24259 61.5772 2.88231Z" fill="#2D363A"/>
<path d="M101.27 6.06485V1.62129C101.27 1.26101 101.39 0.960765 101.629 0.720573C101.869 0.480381 102.169 0.360291 102.529 0.360291H104.987C105.347 0.360291 105.587 0.480381 105.886 0.720573C106.126 0.960765 106.246 1.26101 106.246 1.62129V6.06485C106.246 8.22658 107.325 9.30744 109.424 9.30744H114.58V1.62129C114.58 1.26101 114.7 0.960765 114.94 0.720573C115.18 0.480381 115.48 0.360291 115.839 0.360291H118.298C118.658 0.360291 118.957 0.480381 119.197 0.720573C119.437 0.960765 119.557 1.26101 119.557 1.62129V18.1345C119.557 18.4948 119.437 18.795 119.197 19.0352C118.957 19.2754 118.658 19.3955 118.298 19.3955H115.839C115.48 19.3955 115.18 19.2754 114.94 19.0352C114.7 18.795 114.58 18.4948 114.58 18.1946V13.0304H109.424C106.906 13.0304 104.927 12.4299 103.428 11.289C101.989 10.1481 101.27 8.40673 101.27 6.06485Z" fill="#2D363A"/>
<path d="M143.72 18.795C143.72 19.1553 143.48 19.3955 143 19.3955H139.942C139.583 19.3955 139.223 19.2754 138.803 19.0352C138.384 18.795 138.084 18.4948 137.904 18.1345L135.565 14.4115C135.026 13.5108 134.426 12.8503 133.887 12.3699C133.347 11.8895 132.628 11.7094 131.848 11.7094H128.97V18.1345C128.97 18.4948 128.85 18.795 128.61 18.9752C128.371 19.2154 128.071 19.3355 127.711 19.3355H125.193C124.833 19.3355 124.533 19.2154 124.293 18.9752C124.054 18.735 123.934 18.4347 123.934 18.0745V1.56125C123.934 1.20096 124.054 0.90072 124.293 0.660528C124.533 0.420336 124.833 0.300236 125.193 0.300236H127.711C128.071 0.300236 128.371 0.420336 128.61 0.660528C128.85 0.90072 128.97 1.20096 128.97 1.56125V7.92634H131.848C132.628 7.92634 133.287 7.68615 133.887 7.26581C134.486 6.84548 135.026 6.18494 135.565 5.22417L137.604 1.56125C138.084 0.720576 138.683 0.300236 139.523 0.300236H142.581C143 0.300236 143.24 0.480376 143.24 0.840665C143.24 1.02081 143.18 1.26101 143 1.56125L140.122 6.78543C139.703 7.56605 139.223 8.16653 138.743 8.64691C138.204 9.1273 137.544 9.48759 136.705 9.66774C137.304 9.78783 137.904 10.1481 138.503 10.7486C139.103 11.3491 139.643 12.0096 140.122 12.7302L143.42 18.0144C143.66 18.4347 143.72 18.6149 143.72 18.795Z" fill="#2D363A"/>
<path d="M146.418 18.1946L149.776 5.52442C150.675 2.10168 153.613 0.360291 158.59 0.360291H165.725C166.025 0.360291 166.324 0.480381 166.564 0.720573C166.804 0.960765 166.864 1.26101 166.864 1.56125V18.1345C166.864 18.4948 166.744 18.795 166.504 18.9752C166.264 19.2154 165.965 19.3355 165.605 19.3355H163.087C162.727 19.3355 162.427 19.2154 162.187 18.9752C161.947 18.735 161.828 18.4347 161.828 18.0745V14.7118H152.414L151.515 18.0745C151.455 18.4347 151.215 18.735 150.915 18.9752C150.615 19.2154 150.256 19.3355 149.956 19.3355H147.318C146.958 19.3355 146.718 19.2154 146.598 19.0352C146.418 18.8551 146.358 18.6749 146.358 18.4948C146.358 18.4347 146.358 18.3146 146.418 18.1946ZM153.373 11.0488H161.828V4.14331H158.05C157.211 4.14331 156.431 4.38351 155.832 4.86389C155.172 5.34428 154.753 6.0048 154.573 6.78543L153.373 11.0488Z" fill="#2D363A"/>
<path d="M0 48.0985V31.5853C0 31.225 0.119916 30.9247 0.359749 30.6846C0.599582 30.4444 0.899373 30.3243 1.25912 30.3243H18.4672C18.8269 30.3243 19.1267 30.4444 19.3665 30.6846C19.6064 30.9247 19.7263 31.225 19.7263 31.5853V48.0985C19.7263 48.4588 19.6064 48.759 19.3665 48.9992C19.1267 49.2394 18.8269 49.3595 18.4672 49.3595H16.0089C15.6491 49.3595 15.3493 49.2394 15.1095 48.9992C14.8697 48.759 14.7497 48.4588 14.7497 48.0985V34.0472H4.97654V48.0985C4.97654 48.4588 4.85662 48.759 4.61679 48.9992C4.37696 49.2394 4.07716 49.3595 3.71741 49.3595H1.19917C0.839416 49.3595 0.539625 49.2394 0.299791 48.9992C0.119917 48.759 0 48.4588 0 48.0985Z" fill="#2D363A"/>
<path d="M24.163 48.0985V31.5853C24.163 31.225 24.2829 30.9247 24.5228 30.6846C24.7626 30.4444 25.0624 30.3243 25.4221 30.3243H35.5551C40.8914 30.3243 43.5895 32.7862 43.5895 37.7102C43.5895 42.6341 40.8914 45.0961 35.5551 45.0961H29.1995V48.0985C29.1995 48.4588 29.0796 48.759 28.8398 48.9992C28.5999 49.2394 28.3001 49.3595 27.9404 49.3595H25.4221C25.0624 49.3595 24.7626 49.2394 24.5228 48.9992C24.2829 48.759 24.163 48.4588 24.163 48.0985ZM29.1995 41.3731H34.0561C35.5551 41.3731 36.6943 41.1329 37.4138 40.6525C38.1933 40.1721 38.553 39.2114 38.553 37.7702C38.553 36.3291 38.1933 35.3683 37.4138 34.8879C36.6343 34.4075 35.4951 34.1673 34.0561 34.1673H29.1995V41.3731Z" fill="#2D363A"/>
<path d="M46.6475 48.0985V31.5853C46.6475 31.225 46.7674 30.9247 47.0072 30.6846C47.247 30.4444 47.5468 30.3243 47.9066 30.3243H50.245C50.6047 30.3243 50.9045 30.4444 51.1443 30.6846C51.3842 30.9247 51.5041 31.225 51.5041 31.5853V44.8559L59.0588 31.5853C59.2387 31.225 59.5385 30.9247 59.8982 30.6846C60.258 30.4444 60.5578 30.3243 60.8576 30.3243H64.7549C65.1146 30.3243 65.4144 30.4444 65.6542 30.6846C65.8941 30.9247 66.014 31.225 66.014 31.5853V48.0985C66.014 48.4588 65.8941 48.759 65.6542 48.9992C65.4144 49.2394 65.1146 49.3595 64.7549 49.3595H62.4165C62.0567 49.3595 61.757 49.2394 61.5171 48.9992C61.2773 48.759 61.1574 48.4588 61.1574 48.0985V35.7886L54.2622 48.0985C54.0823 48.4588 53.7825 48.759 53.4228 48.9992C53.063 49.2394 52.7032 49.3595 52.3435 49.3595H47.9665C47.6068 49.3595 47.307 49.2394 47.0672 48.9992C46.7674 48.759 46.6475 48.4588 46.6475 48.0985Z" fill="#2D363A"/>
<path d="M68.832 32.8463V31.5853C68.832 31.225 68.952 30.9247 69.1918 30.6846C69.4316 30.4444 69.7314 30.3243 70.0912 30.3243H86.9394C87.2992 30.3243 87.599 30.4444 87.8388 30.6846C88.0786 30.9247 88.1986 31.225 88.1986 31.5853V32.8463C88.1986 33.2066 88.0786 33.5068 87.8388 33.747C87.599 33.9872 87.2992 34.1073 86.9394 34.1073H81.0036V48.1585C81.0036 48.5188 80.8836 48.8191 80.6438 48.9992C80.404 49.2394 80.1042 49.3595 79.7444 49.3595H77.2262C76.8664 49.3595 76.5667 49.2394 76.3268 48.9992C76.087 48.759 75.9671 48.4588 75.9671 48.1585V34.1073H70.0312C69.6714 34.1073 69.3717 33.9872 69.1318 33.747C68.9519 33.5068 68.832 33.2066 68.832 32.8463Z" fill="#2D363A"/>
<path d="M89.9971 48.5789C89.9971 48.4588 90.057 48.2786 90.1769 48.0985L93.8344 42.0336C91.3161 40.9528 90.057 39.0913 90.117 36.5092C90.117 34.5276 90.7765 33.0264 92.1556 31.9456C93.5346 30.8647 95.2134 30.3243 97.312 30.3243H107.685C107.985 30.3243 108.284 30.4444 108.524 30.6846C108.764 30.9247 108.884 31.225 108.884 31.5853V48.1585C108.884 48.5188 108.764 48.8191 108.524 48.9992C108.284 49.2394 107.985 49.3595 107.625 49.3595H105.107C104.747 49.3595 104.447 49.2394 104.207 48.9992C103.967 48.759 103.847 48.4588 103.847 48.0985V42.5741H99.1107L95.9329 48.0985C95.4533 48.9392 94.8537 49.2995 94.0143 49.2995H90.6566C90.1769 49.3595 89.9971 49.1193 89.9971 48.5789ZM95.0336 36.3891C95.0336 37.9504 95.7531 38.731 97.252 38.731H103.847V34.0472H97.252C95.813 34.0472 95.0336 34.8279 95.0336 36.3891Z" fill="#2D363A"/>
<path d="M111.882 30.8046C111.882 30.4443 112.062 30.2642 112.482 30.2642H115.54C116.319 30.2642 116.979 30.6845 117.458 31.5252L119.497 35.1882C120.037 36.1489 120.576 36.8094 121.176 37.2298C121.775 37.6501 122.435 37.8903 123.214 37.8903H123.814V31.5252C123.814 31.1649 123.934 30.8647 124.174 30.6245C124.413 30.3843 124.713 30.2642 125.073 30.2642H127.591C127.951 30.2642 128.251 30.3843 128.491 30.6245C128.73 30.8647 128.85 31.1649 128.85 31.5252V37.8903H129.45C130.229 37.8903 130.889 37.6501 131.489 37.2298C132.088 36.8094 132.628 36.1489 133.167 35.1882L135.206 31.5252C135.686 30.6845 136.285 30.2642 137.125 30.2642H140.182C140.542 30.2642 140.722 30.3843 140.782 30.6245V30.8046C140.782 31.0448 140.722 31.285 140.542 31.5252L137.664 36.7494C137.245 37.53 136.765 38.1305 136.285 38.6109C135.746 39.0913 135.086 39.4516 134.247 39.6317C134.846 39.7518 135.446 40.1121 136.045 40.7126C136.645 41.3131 137.185 41.9736 137.664 42.6942L140.962 47.9784C141.202 48.3387 141.262 48.699 141.142 48.8791C141.022 49.1193 140.842 49.2394 140.482 49.2394H137.424C137.065 49.2394 136.705 49.1193 136.285 48.8791C135.865 48.6389 135.566 48.3387 135.386 47.9784L133.047 44.2554C132.508 43.3547 131.908 42.6942 131.369 42.2138C130.829 41.7334 130.11 41.5533 129.33 41.5533H128.73V47.9784C128.73 48.3387 128.611 48.6389 128.371 48.8191C128.131 49.0593 127.831 49.1794 127.471 49.1794H124.953C124.593 49.1794 124.294 49.0593 124.054 48.8191C123.814 48.5789 123.694 48.2786 123.694 47.9784V41.5533H123.094C122.315 41.5533 121.595 41.7934 121.056 42.2138C120.516 42.6942 119.917 43.3547 119.377 44.2554L117.039 47.9784C116.799 48.3387 116.499 48.6389 116.139 48.8791C115.72 49.1193 115.36 49.2394 115 49.2394H111.942C111.582 49.2394 111.403 49.1193 111.283 48.8791C111.223 48.8191 111.223 48.699 111.223 48.5789C111.223 48.4588 111.283 48.2786 111.462 47.9784L114.76 42.6942C115.24 41.9736 115.779 41.3131 116.379 40.7126C116.979 40.1121 117.578 39.7518 118.178 39.6317C117.338 39.4516 116.679 39.0913 116.139 38.6109C115.6 38.1305 115.18 37.47 114.76 36.7494L111.882 31.5252C111.942 31.285 111.882 31.0448 111.882 30.8046Z" fill="#2D363A"/>
<path d="M143.84 48.0985V31.5252C143.84 31.1649 143.96 30.8647 144.2 30.6245C144.439 30.3843 144.739 30.2642 145.099 30.2642H160.388C160.748 30.2642 161.048 30.3843 161.288 30.6245C161.528 30.8647 161.647 31.1649 161.647 31.5252V32.7862C161.647 33.1465 161.528 33.4468 161.288 33.6869C161.048 33.9271 160.748 34.0472 160.388 34.0472H148.816V37.8903H158.769C159.129 37.8903 159.429 38.0104 159.669 38.2506C159.909 38.4908 160.029 38.791 160.029 39.1513V40.4123C160.029 40.7726 159.909 41.0729 159.669 41.313C159.429 41.5532 159.129 41.6733 158.769 41.6733H148.816V45.5765H160.328C160.688 45.5765 160.928 45.6966 161.168 45.9368C161.408 46.1769 161.528 46.4772 161.528 46.8375V48.0985C161.528 48.4588 161.408 48.759 161.168 48.9992C160.928 49.2394 160.628 49.3595 160.268 49.3595H145.039C144.679 49.3595 144.379 49.2394 144.14 48.9992C143.96 48.759 143.84 48.4588 143.84 48.0985Z" fill="#2D363A"/>
<path d="M164.766 48.0985V31.5853C164.766 31.225 164.886 30.9247 165.125 30.6846C165.365 30.4444 165.665 30.3243 166.025 30.3243H168.483C168.843 30.3243 169.143 30.4444 169.382 30.6846C169.622 30.9247 169.742 31.225 169.742 31.5853V37.5901H178.856V31.5853C178.856 31.225 178.976 30.9247 179.216 30.6846C179.455 30.4444 179.755 30.3243 180.115 30.3243H182.573C182.933 30.3243 183.233 30.4444 183.473 30.6846C183.712 30.9247 183.832 31.225 183.832 31.5853V48.0985C183.832 48.4588 183.712 48.759 183.473 48.9992C183.233 49.2394 182.933 49.3595 182.573 49.3595H180.115C179.755 49.3595 179.455 49.2394 179.216 48.9992C178.976 48.759 178.856 48.4588 178.856 48.1585V41.3131H169.742V48.1585C169.742 48.5188 169.622 48.8191 169.382 48.9992C169.143 49.2394 168.843 49.3595 168.483 49.3595H166.025C165.665 49.3595 165.365 49.2394 165.125 48.9992C164.886 48.759 164.766 48.4588 164.766 48.0985Z" fill="#2D363A"/>
<path d="M188.389 48.0985V31.5853C188.389 31.225 188.509 30.9247 188.748 30.6846C188.988 30.4444 189.288 30.3243 189.648 30.3243H191.986C192.346 30.3243 192.646 30.4444 192.886 30.6846C193.125 30.9247 193.245 31.225 193.245 31.5853V44.8559L200.8 31.5853C200.98 31.225 201.28 30.9247 201.64 30.6846C201.999 30.4444 202.299 30.3243 202.599 30.3243H206.496C206.856 30.3243 207.156 30.4444 207.396 30.6846C207.635 30.9247 207.755 31.225 207.755 31.5853V48.0985C207.755 48.4588 207.635 48.759 207.396 48.9992C207.156 49.2394 206.856 49.3595 206.496 49.3595H204.158C203.798 49.3595 203.498 49.2394 203.258 48.9992C203.019 48.759 202.899 48.4588 202.899 48.0985V35.7886L195.943 48.0985C195.764 48.4588 195.464 48.759 195.104 48.9992C194.744 49.2394 194.385 49.3595 194.025 49.3595H189.648C189.288 49.3595 188.988 49.2394 188.748 48.9992C188.509 48.759 188.389 48.4588 188.389 48.0985Z" fill="#2D363A"/>
<path d="M211.113 48.5789C211.113 48.4588 211.173 48.2786 211.293 48.0985L214.951 42.0336C212.432 40.9528 211.173 39.0913 211.233 36.5092C211.233 34.5276 211.893 33.0264 213.272 31.9456C214.651 30.8647 216.33 30.3243 218.428 30.3243H228.801C229.101 30.3243 229.401 30.4444 229.64 30.6846C229.88 30.9247 230 31.225 230 31.5853V48.1585C230 48.5188 229.88 48.8191 229.64 48.9992C229.401 49.2394 229.101 49.3595 228.741 49.3595H226.223C225.863 49.3595 225.563 49.2394 225.323 48.9992C225.084 48.759 224.964 48.4588 224.964 48.0985V42.5741H220.227L217.049 48.0985C216.57 48.9392 215.97 49.2995 215.131 49.2995H211.773C211.353 49.3595 211.113 49.1193 211.113 48.5789ZM216.21 36.3891C216.21 37.9504 216.929 38.731 218.428 38.731H225.024V34.0472H218.428C216.929 34.0472 216.21 34.8279 216.21 36.3891Z" fill="#2D363A"/>
<path d="M84.6015 13.2106C83.2224 11.9496 82.5029 10.028 82.5029 7.56606C82.5029 5.10409 83.2224 3.18254 84.6015 1.92154C85.9805 0.660527 87.9591 0 90.5373 0C93.1155 0 95.0942 0.660527 96.4732 1.92154C97.8522 3.18254 98.5118 5.04404 98.5118 7.56606C98.5118 10.028 97.7923 11.9496 96.4732 13.2106C95.0942 14.4716 93.1155 15.1321 90.5373 15.1321C87.9591 15.1321 85.9805 14.4716 84.6015 13.2106ZM87.9591 4.14331C87.4195 4.86389 87.1197 6.00481 87.1197 7.56606C87.1197 9.12731 87.4195 10.2682 87.9591 11.0488C88.4987 11.7694 89.3981 12.1297 90.5373 12.1297C91.7365 12.1297 92.5759 11.7694 93.1155 11.0488C93.6552 10.3283 93.9549 9.18735 93.9549 7.56606C93.9549 6.00481 93.6552 4.86389 93.1155 4.14331C92.5759 3.42273 91.6765 3.06245 90.5373 3.06245C89.3382 3.06245 88.4987 3.42273 87.9591 4.14331Z" fill="#2D363A"/>
<path d="M94.6144 18.4948L90.897 22.2178C90.7171 22.3979 90.4173 22.3979 90.1775 22.2178L86.46 18.4948C86.1602 18.1946 86.3401 17.6541 86.8198 17.6541H94.3146C94.7343 17.5941 94.9142 18.1345 94.6144 18.4948Z" fill="#EC8003"/>
</svg>
