<svg width="44" height="35" viewBox="0 0 44 35" fill="none" xmlns="http://www.w3.org/2000/svg">
<path d="M0 35L0 23.2851C0 18.9463 0.730897 14.8967 2.19269 11.1364C3.75194 7.37603 6.38317 3.66391 10.0864 0L16.6645 5.06198C13.7409 7.95454 11.7431 10.6543 10.6711 13.1612C9.69657 15.668 9.2093 18.2714 9.2093 20.9711L5.11628 17.7893L17.3953 17.7893V35H0ZM26.6047 35V23.2851C26.6047 18.9463 27.3355 14.8967 28.7973 11.1364C30.3566 7.37603 32.9878 3.66391 36.691 0L43.2691 5.06198C40.3455 7.95454 38.3477 10.6543 37.2757 13.1612C36.3012 15.668 35.8139 18.2714 35.8139 20.9711L31.7209 17.7893L44 17.7893L44 35L26.6047 35Z" fill="#EFE104"/>
</svg>
