<svg width="238" height="113" viewBox="0 0 238 113" fill="none" xmlns="http://www.w3.org/2000/svg">
<path d="M6.77601 1.72801C5.43201 1.63201 4.04001 1.536 2.79201 2.064C1.54401 2.592 0.488007 3.792 0.632007 5.136C0.824007 7.008 2.98401 7.968 4.80801 8.496C13.88 11.184 22.952 13.92 31.976 16.608C37.352 18.192 42.776 19.824 47.528 22.752C49.784 24.144 51.896 25.872 54.344 26.976C63.176 31.104 74.696 27.12 82.664 32.736C90.2 38.064 91.544 50.112 100.04 53.76C102.824 54.96 106.088 55.056 108.584 56.736C112.04 59.04 113.096 63.504 113.912 67.536C120.008 62.4 126.104 57.264 132.2 52.08C132.584 51.744 133.016 51.312 132.968 50.784C132.92 50.448 132.632 50.16 132.344 49.92C124.712 43.152 117.08 36.336 109.4 29.568C106.328 26.832 103.256 24.096 99.896 21.744C89.384 14.256 76.664 10.608 64.232 7.056C54.584 4.32 44.84 1.584 34.856 0.576001C24.488 -0.431999 13.976 0.432004 3.84801 2.784" fill="#BCBCBC"/>
<path d="M127.688 53.472C121.496 45.552 114.584 38.208 107.336 31.248C103.688 27.744 99.992 24.288 96.248 20.88C94.616 19.392 93.08 17.76 91.304 16.464C89.96 15.504 88.472 14.832 86.936 14.208C83.24 12.72 79.352 11.664 75.464 10.8C74.552 10.608 74.168 12 75.08 12.192C78.44 12.96 81.8 13.824 85.016 15.024C86.648 15.6 88.232 16.272 89.72 17.184C91.448 18.24 92.888 19.776 94.376 21.12C101.72 27.792 108.968 34.56 115.784 41.808C119.624 45.888 123.272 50.112 126.728 54.528C127.208 55.2 128.216 54.192 127.688 53.472Z" fill="#2D363A"/>
<path d="M92.216 21.36C87.656 18.72 82.856 16.272 77.672 15.12C72.344 13.968 66.92 14.064 61.496 14.256C58.376 14.352 55.256 14.496 52.136 14.448C51.224 14.448 51.224 15.888 52.136 15.888C57.464 15.984 62.792 15.504 68.12 15.6C73.496 15.696 78.728 16.464 83.672 18.576C86.36 19.728 88.952 21.12 91.496 22.608C92.312 23.088 93.032 21.84 92.216 21.36Z" fill="#2D363A"/>
<path d="M153.56 47.808C165.176 42 177.032 36.096 189.848 33.888C206.168 31.056 223.496 34.512 237.416 43.44C230.504 43.872 223.592 44.256 216.68 44.688C217.352 45.936 216.2 47.52 214.808 47.856C213.416 48.192 212.024 47.76 210.584 47.568C208.472 47.28 206.312 47.472 204.2 47.664C188.84 49.248 173.624 51.696 158.552 54.96C157.64 55.152 156.584 55.344 155.864 54.72C155.336 54.288 155.192 53.568 155 52.944C154.328 51.072 152.792 49.584 150.92 48.96" fill="#BCBCBC"/>
<path d="M156.056 55.44C159.32 55.008 162.584 54.528 165.752 53.568C167.96 52.896 170.12 52.032 172.136 50.976C174.488 49.728 176.6 48.096 178.808 46.56C183.608 43.248 188.552 40.224 194.216 38.64C199.112 37.248 203.912 36.048 209.048 36.432C209.96 36.48 209.96 35.04 209.048 34.992C204.104 34.656 199.448 35.712 194.696 37.008C192.68 37.536 190.76 38.16 188.84 39.024C185.768 40.368 182.888 42.144 180.104 43.968C177.944 45.408 175.88 46.992 173.672 48.384C171.608 49.728 169.4 50.784 167.048 51.648C163.352 52.992 159.512 53.568 155.624 54.096C154.76 54.192 155.144 55.536 156.056 55.44Z" fill="#2D363A"/>
<path d="M155.768 60.72C157.64 56.352 156.056 50.784 152.216 48.048C149.336 46.032 145.592 45.552 142.136 46.176C138.68 46.8 135.464 48.384 132.488 50.16C123.992 55.2 116.312 62.16 112.04 71.088C111.464 72.288 110.888 73.584 109.784 74.256C108.776 74.88 103.448 80.112 102.392 80.592C92.456 85.104 91.592 87.984 97.016 91.872C99.8 93.888 102.152 96.672 105.416 97.824C107.288 98.448 109.304 98.496 111.272 98.544C115.256 98.592 119.192 98.64 123.176 98.688C125.96 98.736 128.84 98.736 131.528 98.016C137.624 96.432 136.136 96.816 133.88 87.216C132.344 80.832 140.408 79.344 141.176 78.96C152.168 73.152 154.52 66.096 155.864 59.904" fill="#E8E8E8"/>
<path d="M141.512 55.92C141.512 58.8 140.6 61.152 139.448 61.152C138.296 61.152 137.384 58.8 137.384 55.92C137.384 53.04 138.296 50.688 139.448 50.688C140.6 50.688 141.512 53.04 141.512 55.92Z" fill="#2D363A"/>
<path d="M141.512 55.92C141.512 58.8 140.6 61.152 139.448 61.152C138.296 61.152 137.384 58.8 137.384 55.92C137.384 53.04 138.296 50.688 139.448 50.688C140.6 50.688 141.512 53.04 141.512 55.92Z" fill="#2D363A"/>
<path d="M155.528 55.92C155.528 58.8 154.616 61.104 153.464 61.104C152.312 61.104 151.4 58.8 151.4 55.92C151.4 53.04 152.312 50.688 153.464 50.688C154.616 50.688 155.528 53.04 155.528 55.92Z" fill="#2D363A"/>
<path d="M155.528 55.92C155.528 58.8 154.616 61.104 153.464 61.104C152.312 61.104 151.4 58.8 151.4 55.92C151.4 53.04 152.312 50.688 153.464 50.688C154.616 50.688 155.528 53.04 155.528 55.92Z" fill="#2D363A"/>
<path d="M171.752 71.856C173.192 68.64 171.368 65.904 168.152 64.464C158.984 60.384 158.984 60.384 149.768 56.304C146.552 54.864 144.824 57.12 144.776 61.008C144.776 61.92 147.32 62.544 148.184 62.928C160.616 68.496 171.752 71.856 171.752 71.856Z" fill="#EC8003"/>
<path d="M132.44 83.28C132.152 90.144 126.2 90.288 128.936 96.576C131.672 102.768 135.176 99.312 140.936 102.864C141.416 103.152 141.8 103.968 141.32 104.304C138.68 106.224 137.48 107.04 135.992 107.568C135.176 107.856 129.416 108.816 129.224 108.432C125.72 101.904 126.92 104.736 125.384 97.872C123.656 90.144 126.248 89.76 129.416 82.464C130.136 80.88 132.488 81.744 132.44 83.28Z" fill="#EC8003"/>
<path d="M126.392 108.192C122.408 114.192 109.448 111.696 109.256 111.456C109.208 111.36 109.208 111.264 109.208 111.168C112.28 96.672 111.752 96.432 116.744 82.512C117.32 80.832 119.816 81.792 119.768 83.28C119.432 90.336 114.056 90.192 116.168 96.96C118.376 104.112 121.976 101.664 127.016 107.184L127.064 107.232C127.4 107.664 126.728 107.664 126.392 108.192Z" fill="#EC8003"/>
<path d="M191.384 43.152C193.256 42.048 195.128 40.992 197.192 40.32C199.304 39.648 201.56 39.6 203.768 39.504C208.136 39.312 212.552 39.216 216.824 40.416C217.736 40.656 218.072 39.264 217.208 39.024C212.744 37.776 208.088 37.872 203.48 38.064C201.176 38.16 198.872 38.256 196.712 38.976C194.6 39.696 192.632 40.8 190.664 41.904C189.848 42.336 190.568 43.584 191.384 43.152Z" fill="#2D363A"/>
</svg>
